<svg id="Capa_1" enable-background="new 0 0 512 512" height="512" viewBox="0 0 512 512" width="512" xmlns="http://www.w3.org/2000/svg"><g><path d="m280.242 262.21 42.175 64.901 51.075-85.837z"/><path d="m241.054 181.006-98.059 30.64 98.059 22.015z"/><path d="m270.945 182.639v51.022l82.435-18.507z"/><path d="m109.711 234.809 53.25 133.27 68.797-105.869z"/><path d="m193.77 375.526 105.546-29.105-43.316-66.657z"/><path d="m405.295 203.498 98.441-22.101-232.791-169.132v138.242z"/><path d="m413.638 232.26-73.064 122.792 82.902 127.573 88.524-272.448z"/><path d="m74.35 226.87-74.35-16.693 88.524 272.448 54.504-83.873z"/><path d="m169.222 413.301-56.168 86.434h285.892l-82.543-127.02z"/><path d="m241.054 149.69v-137.425l-232.79 169.132 76.409 17.155z"/></g></svg>