<svg width="1170" height="603" viewBox="0 0 1170 603" fill="none" xmlns="http://www.w3.org/2000/svg">
<path d="M1169.5 602.503V0.502686H877.502C877.502 0.502686 684.5 2.50008 684.5 76C684.5 119.769 663.5 166.5 552 170.5C440.5 174.5 484 301.501 362.5 301.501C241 301.501 256.5 362.001 243 400.001C229.5 438.001 220.5 481.501 99.5008 487.001C-21.4982 492.501 2.50267 602.503 2.50267 602.503H1169.5Z" fill="white"/>
<path d="M1169.5 0.502686V602.503H2.50093H2.50267C2.50267 602.503 -21.4982 492.501 99.5008 487.001C220.5 481.501 229.5 438.001 243 400.001C256.5 362.001 241 301.501 362.5 301.501C484 301.501 440.5 174.5 552 170.5C663.5 166.5 684.5 119.769 684.5 76C684.5 2.50008 877.502 0.502686 877.502 0.502686C877.502 0.502686 1012.71 0.502686 1169.5 0.502686Z" stroke="black"/>
</svg>
