<?xml version="1.0" encoding="UTF-8" standalone="no"?>
<!-- Created with Inkscape (http://www.inkscape.org/) -->

<svg
   version="1.1"
   id="svg1554"
   xml:space="preserve"
   width="682.66669"
   height="682.66669"
   viewBox="0 0 682.66669 682.66669"
   xmlns="http://www.w3.org/2000/svg"
   xmlns:svg="http://www.w3.org/2000/svg"><defs
     id="defs1558"><clipPath
       clipPathUnits="userSpaceOnUse"
       id="clipPath1568"><path
         d="M 0,512 H 512 V 0 H 0 Z"
         id="path1566" /></clipPath></defs><g
     id="g1560"
     transform="matrix(1.3333333,0,0,-1.3333333,0,682.66667)"><g
       id="g1562"><g
         id="g1564"
         clip-path="url(#clipPath1568)"><g
           id="g1570"
           transform="translate(205,437)"><path
             d="M 0,0 V 30 C 0,46.568 -13.432,60 -30,60 -46.568,60 -60,46.568 -60,30 V 0"
             style="fill:none;stroke:#000000;stroke-width:30;stroke-linecap:round;stroke-linejoin:round;stroke-miterlimit:10;stroke-dasharray:none;stroke-opacity:1"
             id="path1572" /></g><g
           id="g1574"
           transform="translate(205,357)"><path
             d="M 0,0 V -60"
             style="fill:none;stroke:#000000;stroke-width:30;stroke-linecap:round;stroke-linejoin:round;stroke-miterlimit:10;stroke-dasharray:none;stroke-opacity:1"
             id="path1576" /></g><g
           id="g1578"
           transform="translate(145,297)"><path
             d="M 0,0 V 60"
             style="fill:none;stroke:#000000;stroke-width:30;stroke-linecap:round;stroke-linejoin:round;stroke-miterlimit:10;stroke-dasharray:none;stroke-opacity:1"
             id="path1580" /></g><g
           id="g1582"
           transform="translate(145,217)"><path
             d="M 0,0 V -202 H 60 V 0"
             style="fill:none;stroke:#000000;stroke-width:30;stroke-linecap:round;stroke-linejoin:round;stroke-miterlimit:10;stroke-dasharray:none;stroke-opacity:1"
             id="path1584" /></g><g
           id="g1586"
           transform="translate(477,15)"><path
             d="m 0,0 h -160 c -11.046,0 -20,8.954 -20,20 v 120 c 0,11.046 8.954,20 20,20 H 0 c 11.046,0 20,-8.954 20,-20 V 20 C 20,8.954 11.046,0 0,0 Z"
             style="fill:none;stroke:#000000;stroke-width:30;stroke-linecap:round;stroke-linejoin:round;stroke-miterlimit:10;stroke-dasharray:none;stroke-opacity:1"
             id="path1588" /></g><g
           id="g1590"
           transform="translate(417,235)"><path
             d="m 0,0 h -40 c -11.046,0 -20,-8.954 -20,-20 v -40 h 80 v 40 C 20,-8.954 11.046,0 0,0 Z"
             style="fill:none;stroke:#000000;stroke-width:30;stroke-linecap:round;stroke-linejoin:round;stroke-miterlimit:10;stroke-dasharray:none;stroke-opacity:1"
             id="path1592" /></g><g
           id="g1594"
           transform="translate(457,115)"><path
             d="m 0,0 h -120 c -22.092,0 -40,17.909 -40,40 0,11.046 8.954,20 20,20 H 20 C 31.046,60 40,51.046 40,40 40,17.909 22.092,0 0,0 Z"
             style="fill:none;stroke:#000000;stroke-width:30;stroke-linecap:round;stroke-linejoin:round;stroke-miterlimit:10;stroke-dasharray:none;stroke-opacity:1"
             id="path1596" /></g><g
           id="g1598"
           transform="translate(437,85)"><path
             d="M 0,0 V 30"
             style="fill:none;stroke:#000000;stroke-width:30;stroke-linecap:round;stroke-linejoin:round;stroke-miterlimit:10;stroke-dasharray:none;stroke-opacity:1"
             id="path1600" /></g><g
           id="g1602"
           transform="translate(357,85)"><path
             d="M 0,0 V 30"
             style="fill:none;stroke:#000000;stroke-width:30;stroke-linecap:round;stroke-linejoin:round;stroke-miterlimit:10;stroke-dasharray:none;stroke-opacity:1"
             id="path1604" /></g><g
           id="g1606"
           transform="translate(295,357)"><path
             d="M 0,0 40,40 0,80 H -220 V 0 Z"
             style="fill:none;stroke:#000000;stroke-width:30;stroke-linecap:round;stroke-linejoin:round;stroke-miterlimit:10;stroke-dasharray:none;stroke-opacity:1"
             id="path1608" /></g><g
           id="g1610"
           transform="translate(55,217)"><path
             d="M 0,0 -40,40 0,80 H 220 V 0 Z"
             style="fill:none;stroke:#000000;stroke-width:30;stroke-linecap:round;stroke-linejoin:round;stroke-miterlimit:10;stroke-dasharray:none;stroke-opacity:1"
             id="path1612" /></g></g></g></g></svg>
