<svg id="Capa_1" enable-background="new 0 0 512 512" height="512" viewBox="0 0 512 512" width="512" xmlns="http://www.w3.org/2000/svg"><g><path d="m75 150h223.333c3.463 0 6.819-1.198 9.499-3.391l36.667-30c7.335-6.002 7.335-17.217 0-23.219l-36.667-30c-2.68-2.193-6.036-3.391-9.499-3.391h-223.333c-8.284 0-15 6.716-15 15v60c0 8.285 6.716 15.001 15 15.001z"/><path d="m290 295v-60c0-8.284-6.716-15-15-15h-223.333c-3.463 0-6.819 1.198-9.499 3.391l-36.667 30c-7.335 6.002-7.335 17.217 0 23.219l36.667 30c2.68 2.193 6.036 3.391 9.499 3.391h223.333c8.284-.001 15-6.717 15-15.001z"/><path d="m492 322h-40v-25c0-19.299-15.701-35-35-35h-40c-19.299 0-35 15.701-35 35v25h-40c-11.046 0-20 8.954-20 20 0 22.091 17.909 40 40 40h150c22.091 0 40-17.909 40-40 0-11.046-8.954-20-20-20zm-120-25c0-2.757 2.243-5 5-5h40c2.757 0 5 2.243 5 5v25h-50z"/><path d="m452 412v15c0 8.284-6.716 15-15 15s-15-6.716-15-15v-15h-50v15c0 8.284-6.716 15-15 15s-15-6.716-15-15v-15h-20c-14.865 0-28.652-4.672-40-12.604v92.604c0 11.046 8.954 20 20 20h190c11.046 0 20-8.954 20-20v-92.604c-11.348 7.932-25.135 12.604-40 12.604z"/><path d="m140 497c0 8.284 6.716 15 15 15h40c8.284 0 15-6.716 15-15v-167h-70z"/><path d="m210 35c0-19.33-15.67-35-35-35-19.33 0-35 15.67-35 35v5h70z"/><path d="m140 170h70v30h-70z"/></g></svg>