<?xml version="1.0" encoding="UTF-8" standalone="no"?>
<!-- Created with Inkscape (http://www.inkscape.org/) -->

<svg
   version="1.1"
   id="svg876"
   xml:space="preserve"
   width="682.66669"
   height="682.66669"
   viewBox="0 0 682.66669 682.66669"
   xmlns="http://www.w3.org/2000/svg"
   xmlns:svg="http://www.w3.org/2000/svg"><defs
     id="defs880"><clipPath
       clipPathUnits="userSpaceOnUse"
       id="clipPath910"><path
         d="M 0,512 H 512 V 0 H 0 Z"
         id="path908" /></clipPath></defs><g
     id="g882"
     transform="matrix(1.3333333,0,0,-1.3333333,0,682.66667)"><g
       id="g884"
       transform="translate(196,377)"><path
         d="M 0,0 -30,-30"
         style="fill:none;stroke:#000000;stroke-width:30;stroke-linecap:round;stroke-linejoin:round;stroke-miterlimit:10;stroke-dasharray:none;stroke-opacity:1"
         id="path886" /></g><g
       id="g888"
       transform="translate(166,347)"><path
         d="M 0,0 30,-30"
         style="fill:none;stroke:#000000;stroke-width:30;stroke-linecap:round;stroke-linejoin:round;stroke-miterlimit:10;stroke-dasharray:none;stroke-opacity:1"
         id="path890" /></g><g
       id="g892"
       transform="translate(316,377)"><path
         d="M 0,0 30,-30"
         style="fill:none;stroke:#000000;stroke-width:30;stroke-linecap:round;stroke-linejoin:round;stroke-miterlimit:10;stroke-dasharray:none;stroke-opacity:1"
         id="path894" /></g><g
       id="g896"
       transform="translate(346,347)"><path
         d="M 0,0 -30,-30"
         style="fill:none;stroke:#000000;stroke-width:30;stroke-linecap:round;stroke-linejoin:round;stroke-miterlimit:10;stroke-dasharray:none;stroke-opacity:1"
         id="path898" /></g><g
       id="g900"
       transform="translate(271,407)"><path
         d="M 0,0 -30,-120"
         style="fill:none;stroke:#000000;stroke-width:30;stroke-linecap:round;stroke-linejoin:round;stroke-miterlimit:10;stroke-dasharray:none;stroke-opacity:1"
         id="path902" /></g><g
       id="g904"><g
         id="g906"
         clip-path="url(#clipPath910)"><g
           id="g912"
           transform="translate(316,137)"><path
             d="m 0,0 v -92 c 0,-16.569 -13.432,-30 -30,-30 h -60 c -16.568,0 -30,13.431 -30,30 V 0"
             style="fill:none;stroke:#000000;stroke-width:30;stroke-linecap:round;stroke-linejoin:round;stroke-miterlimit:10;stroke-dasharray:none;stroke-opacity:1"
             id="path914" /></g><g
           id="g916"
           transform="translate(106,347)"><path
             d="M 0,0 C 0,82.843 67.157,150 150,150 232.843,150 300,82.843 300,0"
             style="fill:none;stroke:#000000;stroke-width:30;stroke-linecap:round;stroke-linejoin:round;stroke-miterlimit:10;stroke-dasharray:none;stroke-opacity:1"
             id="path918" /></g><g
           id="g920"
           transform="translate(166,75)"><path
             d="M 0,0 H 180"
             style="fill:none;stroke:#000000;stroke-width:30;stroke-linecap:round;stroke-linejoin:round;stroke-miterlimit:10;stroke-dasharray:none;stroke-opacity:1"
             id="path922" /></g><g
           id="g924"
           transform="translate(166,137)"><path
             d="M 0,0 H 180"
             style="fill:none;stroke:#000000;stroke-width:30;stroke-linecap:round;stroke-linejoin:round;stroke-miterlimit:10;stroke-dasharray:none;stroke-opacity:1"
             id="path926" /></g><g
           id="g928"
           transform="translate(106,347)"><path
             d="M 0,0 C 0,-90 90,-120 90,-210"
             style="fill:none;stroke:#000000;stroke-width:30;stroke-linecap:round;stroke-linejoin:round;stroke-miterlimit:10;stroke-dasharray:none;stroke-opacity:1"
             id="path930" /></g><g
           id="g932"
           transform="translate(406,347)"><path
             d="M 0,0 C 0,-90 -90,-120 -90,-210"
             style="fill:none;stroke:#000000;stroke-width:30;stroke-linecap:round;stroke-linejoin:round;stroke-miterlimit:10;stroke-dasharray:none;stroke-opacity:1"
             id="path934" /></g></g></g></g></svg>
