<?xml version="1.0" encoding="UTF-8" standalone="no"?>
<!-- Created with Inkscape (http://www.inkscape.org/) -->

<svg
   version="1.1"
   id="svg357"
   xml:space="preserve"
   width="682.66669"
   height="682.66669"
   viewBox="0 0 682.66669 682.66669"
   xmlns="http://www.w3.org/2000/svg"
   xmlns:svg="http://www.w3.org/2000/svg"><defs
     id="defs361"><clipPath
       clipPathUnits="userSpaceOnUse"
       id="clipPath371"><path
         d="M 0,512 H 512 V 0 H 0 Z"
         id="path369" /></clipPath></defs><g
     id="g363"
     transform="matrix(1.3333333,0,0,-1.3333333,0,682.66667)"><g
       id="g365"><g
         id="g367"
         clip-path="url(#clipPath371)"><g
           id="g373"
           transform="translate(346,90)"><path
             d="m 0,0 h -180 c -8.4,0 -15,-6.6 -15,-15 0,-8.4 6.6,-15 15,-15 h 15 v -15 c 0,-24.9 20.1,-45 45,-45 h 60 c 24.9,0 45,20.1 45,45 v 15 H 0 c 8.4,0 15,6.6 15,15 C 15,-6.6 8.4,0 0,0"
             style="fill:#000000;fill-opacity:1;fill-rule:nonzero;stroke:none"
             id="path375" /></g><g
           id="g377"
           transform="translate(356.6055,357.6055)"><path
             d="m 0,0 c 5.859,-5.859 5.859,-15.352 0,-21.211 l -30,-30 c -5.859,-5.859 -15.352,-5.86 -21.211,0 -5.859,5.859 -5.859,15.352 0,21.211 l 19.395,19.395 -19.395,19.394 c -5.859,5.859 -5.859,15.352 0,21.211 5.859,5.859 15.352,5.859 21.211,0 z m -201.211,-21.211 c -5.859,5.859 -5.859,15.352 0,21.211 l 30,30 c 5.859,5.859 15.352,5.859 21.211,0 5.859,-5.859 5.859,-15.352 0,-21.211 L -169.395,-10.605 -150,-30 c 5.859,-5.859 5.859,-15.352 0,-21.211 -5.859,-5.859 -15.352,-5.86 -21.211,0 z m 71.045,-45.762 30,120 c 2.021,8.042 10.02,13.008 18.193,10.913 8.057,-2.006 12.92,-10.151 10.928,-18.178 l -30,-120 c -2.006,-8.057 -10.171,-12.919 -18.193,-10.913 -8.057,2.006 -12.92,10.151 -10.928,18.178 m 194.561,56.368 c 0,90.899 -74.1,165 -165,165 -90.901,0 -165,-74.101 -165,-165 0,-50.101 24.299,-82.5 48,-114 18.9,-24.9 36.599,-48.9 41.099,-81 h -14.099 c -8.401,0 -15,-6.601 -15,-15 0,-8.4 6.599,-15 15,-15 h 180 c 8.4,0 15,6.6 15,15 0,8.399 -6.6,15 -15,15 h -14.1 c 4.5,32.1 22.199,56.1 41.1,81 23.7,31.5 48,63.899 48,114"
             style="fill:#000000;fill-opacity:1;fill-rule:nonzero;stroke:none"
             id="path379" /></g></g></g></g></svg>
